<svg xmlns="http://www.w3.org/2000/svg" shape-rendering="geometricPrecision" text-rendering="geometricPrecision" image-rendering="optimizeQuality" fill-rule="evenodd" clip-rule="evenodd" viewBox="0 0 512 512"><g fill-rule="nonzero"><path fill="#EB0100" d="M256 0c43.4 0 84.28 10.82 120.1 29.88-16.68 10.8-27.45 21.04-36 35.85-25.71-11.38-54.17-17.71-84.1-17.71-57.44 0-109.44 23.29-147.07 60.91C71.31 146.56 48.02 198.56 48.02 256s23.29 109.44 60.91 147.07c37.63 37.62 89.63 60.91 147.07 60.91s109.44-23.29 147.07-60.91c37.62-37.63 60.91-89.63 60.91-147.07 0-16.73-1.98-32.99-5.71-48.57 14.97-8.37 26.3-23.98 39.12-36.88C506.85 197.28 512 226.04 512 256c0 70.68-28.66 134.69-74.99 181.01C390.69 483.34 326.68 512 256 512c-70.68 0-134.69-28.66-181.02-74.99C28.66 390.69 0 326.68 0 256c0-70.68 28.66-134.69 74.98-181.02C121.31 28.66 185.32 0 256 0z"/><path d="M230.71 338.25H137.6c-2.66 0-4.59-.63-5.79-1.88-1.19-1.26-1.79-3.28-1.79-6.08v-26.77c0-2.8.6-4.83 1.79-6.08 1.2-1.26 3.13-1.88 5.79-1.88h23.6v-73.88h-19.38c-2.67 0-4.6-.62-5.8-1.87-1.19-1.26-1.79-3.29-1.79-6.09v-26.76c0-2.81.6-4.83 1.79-6.09 1.2-1.25 3.13-1.87 5.8-1.87h61.08c2.67 0 4.6.62 5.8 1.87 1.19 1.26 1.78 3.28 1.78 6.09v108.6h20.23c2.66 0 4.59.62 5.78 1.88 1.2 1.25 1.8 3.28 1.8 6.08v26.77c0 2.8-.6 4.82-1.8 6.08-1.19 1.25-3.12 1.88-5.78 1.88zM412.36 51.79h23.85c4.86 0 8.83 3.98 8.83 8.84V93h32.38c4.86 0 8.83 3.98 8.83 8.84v23.85c0 4.86-3.97 8.84-8.83 8.84h-32.38v32.37c0 4.87-3.97 8.84-8.83 8.84h-23.85c-4.86 0-8.84-3.97-8.84-8.84v-32.37h-32.38c-4.86 0-8.84-3.98-8.84-8.84v-23.85c0-4.86 3.98-8.84 8.84-8.84h32.38V60.63c0-4.86 3.98-8.84 8.84-8.84zm-31.22 229.83v21.46c0 5.74-1.02 10.99-3.05 15.7-2.03 4.72-5.52 8.78-10.43 12.16-4.91 3.4-11.55 6.02-19.9 7.86-8.35 1.84-18.85 2.76-31.49 2.76-12.64 0-23.18-.92-31.59-2.76-8.43-1.84-15.1-4.46-20.01-7.86-4.92-3.38-8.4-7.44-10.43-12.16-2.03-4.71-3.05-9.95-3.05-15.7v-21.46c0-10.32 2.14-18.29 6.42-23.89 4.28-5.59 9.59-9.06 15.9-10.39-4.63-2.07-7.86-5.16-9.68-9.29-1.83-4.13-2.75-10.44-2.75-16.04v-12.83c0-5.46.92-10.33 2.75-14.59 1.81-4.28 4.85-7.94 9.04-10.96 4.22-3.01 9.92-5.35 17.07-6.96 7.16-1.62 16.01-2.44 26.54-2.44 10.53 0 19.35.82 26.44 2.44 7.08 1.61 12.71 3.95 16.85 6.96 4.13 3.02 7.09 6.68 8.84 10.96 1.75 4.26 2.63 9.15 2.63 14.59v12.83c0 5.58-.9 11.91-2.73 16.04-1.83 4.13-5.06 7.22-9.69 9.29 6.32 1.33 11.62 4.8 15.9 10.39 4.29 5.6 6.42 13.58 6.42 23.89zm-79.52-49.54c0 2.29.73 4.31 2.21 5.86 1.47 1.55 6.54 2.32 12.44 2.32 6.04 0 11.12-.79 12.44-2.32 1.31-1.53 2-3.5 2-5.86v-12.62c0-2.22-.68-4.09-2-5.64-1.34-1.55-6.4-2.33-12.44-2.33-5.9 0-10.97.78-12.44 2.33-1.48 1.55-2.21 3.46-2.21 5.64v12.62zm-5.27 62.59c0 2.31 1.21 4.33 3.58 5.86 2.38 1.54 8.76 2.33 16.34 2.33s13.92-.79 16.23-2.33c2.3-1.53 3.47-3.5 3.47-5.86V281.5c0-2.21-1.16-4.09-3.47-5.64-2.32-1.54-8.65-2.32-16.23-2.32s-13.96.78-16.34 2.32c-2.39 1.55-3.58 3.46-3.58 5.64v13.17z"/></g></svg>