<?xml version="1.0" encoding="UTF-8" standalone="no"?><!-- Generator: Gravit.io --><svg xmlns="http://www.w3.org/2000/svg" xmlns:xlink="http://www.w3.org/1999/xlink" style="isolation:isolate" viewBox="0 0 1280 1280" width="1280pt" height="1280pt"><defs><clipPath id="_clipPath_KsblnO3WoeIamwBLPicQwsGMxGpXU1tQ"><rect width="1280" height="1280"/></clipPath></defs><g clip-path="url(#_clipPath_KsblnO3WoeIamwBLPicQwsGMxGpXU1tQ)"><path d=" M 302.672 638.653 C 358.313 621.021 413.587 603.534 469.684 585.787 C 449.211 556.075 429.253 527.112 408.663 497.231 C 412.839 498.182 416.096 498.87 419.325 499.668 C 466.238 511.263 513.146 522.877 560.058 534.473 C 565.698 535.867 571.395 537.044 576.992 538.586 C 580.004 539.415 581.793 538.788 583.656 536.114 C 601.335 510.728 619.166 485.448 636.966 460.147 C 638.11 458.521 639.358 456.969 641.046 454.736 C 644.954 460.23 648.677 465.422 652.356 470.645 C 667.777 492.537 683.242 514.398 698.527 536.384 C 700.498 539.219 702.45 539.172 705.311 538.464 C 757.699 525.503 810.105 512.612 862.513 499.732 C 865.474 499.004 868.486 498.487 872.131 498.939 C 852.384 527.615 832.638 556.292 812.341 585.767 C 870.306 604.133 927.515 622.26 984.724 640.386 C 984.724 640.796 984.723 641.205 984.722 641.615 C 927.512 659.741 870.303 677.868 812.329 696.238 C 832.844 726.008 852.802 754.971 873.459 784.947 C 861.351 781.986 850.333 779.309 839.324 776.595 C 794.504 765.545 749.684 754.498 704.878 743.394 C 702.142 742.716 700.351 743.011 698.557 745.585 C 680.957 770.823 663.213 795.96 645.5 821.12 C 644.174 823.003 642.779 824.838 640.951 827.329 C 634.762 818.578 628.842 810.235 622.952 801.871 C 609.832 783.242 596.655 764.652 583.69 745.915 C 581.654 742.972 579.705 742.784 576.562 743.563 C 524.18 756.55 471.771 769.427 419.367 782.323 C 416.18 783.108 412.985 783.855 408.575 784.911 C 429.104 755.116 449.02 726.212 469.668 696.245 C 411.849 677.922 354.64 659.793 297.43 641.663 C 297.345 641.304 297.26 640.944 297.174 640.585 C 298.885 639.99 300.596 639.395 302.672 638.653 Z " fill="rgb(248,208,0)"/></g></svg>