<?xml version="1.0" encoding="UTF-8" standalone="no"?><!-- Generator: Gravit.io --><svg xmlns="http://www.w3.org/2000/svg" xmlns:xlink="http://www.w3.org/1999/xlink" style="isolation:isolate" viewBox="0 0 1280 1280" width="1280pt" height="1280pt"><defs><clipPath id="_clipPath_zRmUZZpZx86uZo1fqAtpUNWKLYwHtWFh"><rect width="1280" height="1280"/></clipPath></defs><g clip-path="url(#_clipPath_zRmUZZpZx86uZo1fqAtpUNWKLYwHtWFh)"><path d=" M 881.319 530.677 C 907.325 551.872 927.842 576.675 936.778 609.294 C 947.465 648.308 938.823 683.834 915.36 716.087 C 895.207 743.79 868.333 763.489 838.313 779.171 C 798.756 799.836 756.412 811.625 712.424 817.971 C 685.325 821.88 658.069 823.559 630.704 822.877 C 565.843 821.258 503.238 809.588 444.939 779.804 C 414.328 764.166 387.103 744.105 366.569 716.02 C 349.444 692.599 339.971 666.599 340.911 637.256 C 341.904 606.253 354.222 579.824 373.985 556.57 C 399.053 527.075 431.006 507.246 466.161 492.19 C 505.213 475.466 546.136 466.08 588.317 461.791 C 649.771 455.541 710.442 459.511 770.044 476.129 C 810.347 487.367 848.038 504.184 881.319 530.677 Z  M 877.816 590.708 C 870.419 583.058 863.619 574.698 855.518 567.884 C 826.671 543.622 792.766 529.111 756.863 519.054 C 695.105 501.754 632.45 499.084 569.261 509.249 C 529.028 515.721 490.459 527.515 454.934 548.004 C 433.498 560.367 414.263 575.356 400.344 596.211 C 387.663 615.211 382.407 635.864 388.05 658.478 C 393.834 681.657 408.317 699.065 426.128 713.986 C 451.423 735.178 480.744 748.923 511.895 758.936 C 564.905 775.977 619.281 781.319 674.696 777.214 C 718.546 773.965 761.007 764.827 801.362 747.021 C 827.808 735.353 852.192 720.528 871.685 698.725 C 901.898 664.929 904.172 626.633 877.816 590.708 Z " fill="rgb(182,215,235)"/><path d=" M 479.02 675.993 C 467.005 665.472 457.485 653.578 453.568 638.155 C 447.606 614.677 455.02 594.782 471.079 577.669 C 487.072 560.628 507.201 550.039 528.8 542.034 C 556.811 531.652 585.9 526.545 615.646 524.7 C 656.006 522.197 695.863 525.015 734.899 536.052 C 759.784 543.088 783.257 553.172 803.159 570.2 C 815.435 580.704 825.091 593.167 828.789 609.212 C 834.127 632.368 826.54 651.923 810.65 668.637 C 793.331 686.853 771.519 697.821 748.123 705.794 C 705.24 720.41 660.99 724.021 616.034 721.348 C 586.121 719.57 556.877 714.37 528.696 703.954 C 510.776 697.331 493.951 688.688 479.02 675.993 Z  M 717.179 668.736 C 717.98 668.507 718.78 668.276 719.581 668.049 C 738.758 662.6 757.323 655.789 773.008 642.965 C 789.448 629.524 789.375 616.522 772.975 602.991 C 762.558 594.397 750.682 588.347 738.036 583.975 C 680.8 564.187 622.742 563.461 564.286 577.567 C 544.594 582.319 525.778 589.606 509.706 602.483 C 492.244 616.473 492.356 629.574 509.877 643.7 C 520.785 652.495 533.221 658.553 546.387 662.94 C 602.434 681.613 659.18 682.147 717.179 668.736 Z " fill="rgb(182,215,235)"/><path d=" M 704.729 602.278 C 713.719 612.058 713.16 621.267 702.965 629.455 C 692.817 637.604 680.686 641.212 668.129 643.404 C 643.117 647.771 618.382 646.965 594.409 637.918 C 588.893 635.837 583.479 632.818 578.859 629.167 C 567.951 620.545 568.143 609.296 579.184 600.749 C 583.336 597.535 588.064 594.684 592.977 592.895 C 624.973 581.242 657.145 581.191 689.104 592.961 C 694.595 594.983 699.368 598.955 704.729 602.278 Z " fill="rgb(182,215,235)"/></g></svg>