<?xml version="1.0" encoding="UTF-8" standalone="no"?><!-- Generator: Gravit.io --><svg xmlns="http://www.w3.org/2000/svg" xmlns:xlink="http://www.w3.org/1999/xlink" style="isolation:isolate" viewBox="0 0 1280 1280" width="1280pt" height="1280pt"><defs><clipPath id="_clipPath_yv98X5Di6qOp5zvwlHh6DKAiqWwit5nj"><rect width="1280" height="1280"/></clipPath></defs><g clip-path="url(#_clipPath_yv98X5Di6qOp5zvwlHh6DKAiqWwit5nj)"><path d=" M 592.388 461.214 C 612.962 460.46 633.099 458.82 653.191 459.256 C 706.613 460.415 758.68 469.443 808.484 489.434 C 841.046 502.505 871.185 519.751 896.476 544.376 C 920.621 567.885 937.381 595.678 940.738 629.912 C 943.373 656.775 936.812 681.809 922.752 704.809 C 904.263 735.054 877.691 756.583 847.32 773.815 C 806.729 796.846 762.855 810.239 716.885 817.004 C 701.784 819.226 686.562 821.017 671.331 821.861 C 653.083 822.873 634.687 823.919 616.496 822.747 C 556.316 818.873 497.963 807.095 443.876 778.907 C 422.65 767.845 402.855 754.626 385.75 737.845 C 364.304 716.805 348.358 692.428 342.825 662.236 C 337.223 631.672 343.395 603.345 359.372 577.051 C 377.595 547.062 403.943 525.723 433.972 508.588 C 474.656 485.373 518.694 472.015 564.792 464.955 C 573.814 463.573 582.884 462.494 592.388 461.214 Z  M 466.674 535.168 C 443.39 547.058 421.782 561.182 404.323 581.04 C 390.42 596.853 381.656 614.97 379.129 635.907 C 378.772 638.87 379.191 642.458 380.611 644.996 C 383.747 650.601 387.162 656.265 391.496 660.949 C 413.098 684.296 440.702 698.146 469.955 709.044 C 498.308 719.606 527.675 725.648 557.845 728.218 C 581.974 730.273 606.001 730.963 629.837 725.938 C 647.858 722.139 665.35 716.831 680.011 704.958 C 685.173 700.777 689.374 695.94 689.12 688.625 C 688.703 676.669 680.746 670.657 671.153 666.262 C 660.21 661.249 648.436 660.331 636.552 660.05 C 616.503 659.574 597.752 654.624 581.063 643.082 C 557.322 626.664 547.849 598.133 558.117 572.431 C 564.181 557.251 576.044 547.006 589.65 538.727 C 615.115 523.232 643.34 516.27 672.628 514.327 C 702.232 512.363 731.829 514.198 761.105 519.528 C 770.538 521.245 779.928 523.202 789.337 525.049 C 787.853 523.469 786.115 522.628 784.306 521.985 C 729.668 502.559 673.414 494.784 615.581 499.037 C 599.202 500.241 582.78 501.603 566.561 504.092 C 532.015 509.396 498.854 519.545 466.674 535.168 Z  M 792.516 525.527 C 792.146 525.506 791.777 525.485 791.407 525.463 C 791.662 525.582 791.917 525.701 792.516 525.527 Z  M 795.134 526.723 C 795.076 526.575 795.018 526.427 794.961 526.28 C 794.906 526.426 794.852 526.572 795.134 526.723 Z " fill="rgb(255,255,255)"/><path d=" M 792.344 525.674 C 791.917 525.701 791.662 525.582 791.407 525.463 C 791.777 525.485 792.146 525.506 792.344 525.674 Z " fill="rgb(176,179,178)"/><path d=" M 794.966 526.72 C 794.852 526.572 794.906 526.426 794.961 526.28 C 795.018 526.427 795.076 526.575 794.966 526.72 Z " fill="rgb(176,179,178)"/></g></svg>